<svg xmlns="http://www.w3.org/2000/svg" width="300" height="300" viewBox="0 0 300 300"><rect width="100%" height="100%" fill="#6366F1"/><path fill="#FFFFFF" d="M69.515 139.335v13.98q0 1.83-.45 3.3t-1.34 2.5q-.89 1.04-2.23 1.59-1.33.56-3.1.56-.81 0-1.59-.1t-1.64-.3q.05-.61.11-1.2.06-.6.1-1.2.05-.34.27-.54.21-.2.62-.2.25 0 .67.11.41.1 1.04.1.85 0 1.51-.25.66-.24 1.11-.79.44-.54.66-1.4.23-.86.23-2.09v-14.07zm12.17 17.72v-2.6q-1.61.07-2.7.28-1.1.2-1.76.52-.66.31-.94.73-.29.42-.29.91 0 .98.58 1.4t1.51.42q1.14 0 1.97-.41t1.63-1.25m-7.83-8.09-.66-1.18q2.65-2.43 6.39-2.43 1.35 0 2.41.44 1.07.44 1.8 1.23.74.79 1.12 1.88t.38 2.4v9.72h-1.68q-.52 0-.81-.16-.28-.16-.45-.63l-.33-1.12q-.58.53-1.14.93-.55.4-1.15.66-.6.28-1.28.42-.69.14-1.51.14-.98 0-1.8-.26-.83-.26-1.43-.79-.6-.52-.93-1.3-.33-.79-.33-1.82 0-.58.2-1.16.19-.58.64-1.1.44-.53 1.14-.99.71-.47 1.74-.82 1.02-.34 2.39-.56 1.36-.22 3.12-.26v-.9q0-1.54-.66-2.29-.66-.74-1.91-.74-.9 0-1.49.21t-1.04.47q-.45.27-.82.48t-.82.21q-.39 0-.66-.21-.27-.2-.43-.47m18.63 12.06h-3.71v-15.39h2.27q.72 0 .94.68l.24 1.14q.41-.46.85-.83t.95-.64q.5-.27 1.08-.43.57-.16 1.26-.16 1.46 0 2.4.79.93.79 1.4 2.09.36-.76.9-1.31t1.18-.9q.65-.34 1.38-.5.72-.17 1.46-.17 1.27 0 2.26.39t1.67 1.14q.67.75 1.03 1.83.35 1.08.35 2.48v9.79h-3.71v-9.79q0-1.47-.64-2.22-.65-.74-1.89-.74-.57 0-1.06.2-.49.19-.85.56-.37.36-.58.92t-.21 1.28v9.79h-3.72v-9.79q0-1.55-.62-2.25-.63-.71-1.83-.71-.81 0-1.5.4-.7.39-1.3 1.09zm24.34-9.46h6.99q0-.73-.2-1.36-.2-.64-.61-1.12-.4-.48-1.02-.76-.63-.27-1.45-.27-1.61 0-2.53.91-.92.92-1.18 2.6m9.45 2.23h-9.52q.09 1.19.42 2.05t.87 1.42q.54.57 1.28.84.74.28 1.64.28t1.56-.21q.65-.21 1.14-.46.48-.26.85-.47t.71-.21q.47 0 .69.34l1.07 1.36q-.62.72-1.38 1.2-.77.49-1.6.78-.83.3-1.69.41-.87.12-1.68.12-1.6 0-2.98-.53t-2.4-1.57-1.61-2.58q-.58-1.54-.58-3.57 0-1.57.51-2.96t1.46-2.41q.95-1.03 2.33-1.63 1.37-.6 3.09-.6 1.46 0 2.69.47 1.23.46 2.11 1.35.89.9 1.39 2.19.5 1.3.5 2.97 0 .84-.18 1.13t-.69.29m13.88-6.49-.84 1.33q-.15.24-.32.34-.16.09-.42.09-.27 0-.57-.15-.31-.14-.72-.33-.4-.19-.92-.34t-1.22-.15q-1.1 0-1.72.47-.62.46-.62 1.21 0 .5.32.83.32.34.86.6.53.25 1.2.45.68.21 1.38.45.69.23 1.37.54.67.31 1.21.78.53.47.85 1.14.32.66.32 1.58 0 1.12-.39 2.05-.4.94-1.18 1.62t-1.93 1.07q-1.15.38-2.65.38-.79 0-1.55-.14t-1.45-.4q-.7-.25-1.29-.6-.6-.34-1.05-.75l.86-1.41q.16-.25.39-.39.22-.13.57-.13.34 0 .65.19.31.2.71.42.41.22.96.42.54.2 1.38.2.66 0 1.14-.16.47-.16.78-.41.3-.26.45-.6.14-.33.14-.69 0-.54-.32-.89-.33-.34-.86-.6t-1.21-.46q-.69-.2-1.4-.44t-1.39-.56q-.69-.32-1.22-.82-.53-.49-.85-1.22-.33-.71-.33-1.73 0-.95.38-1.8.37-.86 1.1-1.5t1.82-1.02q1.08-.38 2.51-.38 1.59 0 2.89.53 1.31.52 2.18 1.38m36.52-7.97h3.17l-6.74 21.69h-3.64l-4.74-14.82q-.2-.54-.36-1.32-.09.38-.18.71t-.2.61l-4.78 14.82h-3.66l-6.72-21.69h3.37q.53 0 .88.25.35.24.47.67l3.69 12.97q.12.48.24 1.04.11.57.23 1.18.12-.63.26-1.18.14-.56.31-1.04l4.26-12.97q.12-.35.47-.63.35-.29.86-.29h1.19q.52 0 .85.26.33.25.5.66l4.24 12.97q.32.93.57 2.15.2-1.19.44-2.15l3.69-12.97q.09-.38.46-.65.36-.27.87-.27m5.37 6.3h3.72v15.39h-3.72zm4.23-4.49q0 .49-.19.91-.2.42-.52.73t-.76.5q-.43.19-.93.19-.48 0-.9-.19-.43-.19-.75-.5-.31-.31-.5-.73t-.19-.91.19-.92q.19-.44.5-.75.32-.32.75-.51.42-.18.9-.18.5 0 .93.18.44.19.76.51.32.31.52.75.19.43.19.92m3.32-2.41h3.7v22.29h-3.7zm17.64 8.57-.84 1.33q-.15.24-.32.34-.16.09-.42.09-.27 0-.57-.15-.31-.14-.72-.33-.4-.19-.92-.34t-1.22-.15q-1.1 0-1.72.47-.62.46-.62 1.21 0 .5.32.83.32.34.86.6.53.25 1.2.45.68.21 1.38.45.69.23 1.37.54.67.31 1.21.78.53.47.85 1.14.32.66.32 1.58 0 1.12-.39 2.05-.4.94-1.18 1.62t-1.93 1.07q-1.15.38-2.65.38-.79 0-1.55-.14t-1.45-.4q-.7-.25-1.29-.6-.6-.34-1.05-.75l.86-1.41q.16-.25.39-.39.22-.13.57-.13.34 0 .65.19.31.2.71.42.41.22.96.42.54.2 1.38.2.66 0 1.14-.16.47-.16.78-.41.3-.26.45-.6.14-.33.14-.69 0-.54-.32-.89-.33-.34-.86-.6t-1.21-.46q-.69-.2-1.4-.44t-1.39-.56q-.69-.32-1.22-.82-.53-.49-.85-1.22-.33-.71-.33-1.73 0-.95.38-1.8.37-.86 1.1-1.5t1.82-1.02q1.08-.38 2.51-.38 1.59 0 2.89.53 1.31.52 2.18 1.38m9.76-1.91q1.71 0 3.12.56 1.4.55 2.4 1.57.99 1.02 1.53 2.49t.54 3.29q0 1.83-.54 3.3-.54 1.46-1.53 2.5-1 1.03-2.4 1.59-1.41.55-3.12.55-1.72 0-3.13-.55-1.41-.56-2.41-1.59-1-1.04-1.54-2.5-.55-1.47-.55-3.3 0-1.82.55-3.29.54-1.47 1.54-2.49t2.41-1.57q1.41-.56 3.13-.56m0 13q1.92 0 2.85-1.29.92-1.29.92-3.77 0-2.5-.92-3.8-.93-1.3-2.85-1.3-1.95 0-2.88 1.31-.94 1.31-.94 3.79 0 2.47.94 3.77.93 1.29 2.88 1.29m13.64-12.08.25 1.21q.47-.46.99-.86.51-.4 1.09-.68.58-.27 1.24-.43t1.44-.16q1.26 0 2.23.43.98.43 1.63 1.2t.99 1.84q.34 1.08.34 2.37v9.79h-3.71v-9.79q0-1.42-.64-2.19-.65-.77-1.97-.77-.96 0-1.8.44-.84.43-1.59 1.18v11.13h-3.7v-15.39h2.26q.72 0 .95.68"/></svg>